<?xml version="1.0" standalone="no"?>
<!DOCTYPE svg PUBLIC "-//W3C//DTD SVG 20010904//EN"
 "http://www.w3.org/TR/2001/REC-SVG-20010904/DTD/svg10.dtd">
<svg version="1.0" xmlns="http://www.w3.org/2000/svg"
 width="140.000000pt" height="140.000000pt" viewBox="0 0 140.000000 140.000000"
 preserveAspectRatio="xMidYMid meet">
<metadata>
Created by potrace 1.14, written by Peter Selinger 2001-2017
</metadata>
<g transform="translate(0.000000,140.000000) scale(0.100000,-0.100000)"
fill="#000000" stroke="none">
<path d="M789 1155 c-2 -1 -20 -5 -39 -8 -19 -3 -55 -12 -79 -21 -51 -19 -54
-19 -46 -6 6 10 -38 -4 -109 -35 -58 -25 -167 -99 -218 -149 -62 -60 -142
-185 -178 -278 -30 -77 -61 -271 -46 -286 4 -3 90 -7 191 -7 l183 -1 -28 36
c-59 75 -91 162 -95 258 -4 124 36 236 119 328 53 60 149 128 168 121 9 -3 7
-7 -7 -12 -24 -10 -102 -71 -132 -105 -70 -78 -112 -198 -107 -306 6 -117 73
-239 159 -290 37 -21 54 -24 142 -24 l100 0 7 41 c12 73 47 162 87 223 22 32
38 60 37 61 -168 102 -218 232 -131 336 49 58 136 75 235 45 38 -12 46 -12 42
-2 -7 17 -90 62 -129 70 -42 8 -122 16 -126 11z"/>
<path d="M1185 835 c-84 -15 -133 -38 -198 -95 -92 -81 -143 -183 -153 -306
l-6 -64 259 0 258 0 -51 30 c-95 54 -147 138 -148 240 0 98 45 169 123 190 52
13 -11 17 -84 5z"/>
</g>
</svg>
